<svg xmlns="http://www.w3.org/2000/svg" width="1280" height="360" viewBox="0 0 1280 360" role="img" aria-labelledby="title desc">
<title id="title">Q-Orbit — Theoretical satellite QKD research</title><desc id="desc">An orbit graphic beside the project name, with research, simulation and evidence labels.</desc>
<defs><linearGradient id="bg" x2="1" y2="1"><stop stop-color="#08182d"/><stop offset="1" stop-color="#14344a"/></linearGradient><radialGradient id="glow"><stop stop-color="#31c7c9" stop-opacity=".25"/><stop offset="1" stop-color="#31c7c9" stop-opacity="0"/></radialGradient></defs>
<rect width="1280" height="360" rx="22" fill="url(#bg)"/><circle cx="1040" cy="174" r="204" fill="url(#glow)"/>
<g fill="none" stroke="#58bdc8"><circle cx="1020" cy="180" r="87" stroke-opacity=".55"/><ellipse cx="1020" cy="180" rx="40" ry="87" stroke-opacity=".35"/><ellipse cx="1020" cy="180" rx="87" ry="29" stroke-opacity=".35"/><ellipse cx="1020" cy="180" rx="184" ry="71" transform="rotate(-30 1020 180)" stroke-width="2"/><ellipse cx="1020" cy="180" rx="184" ry="71" transform="rotate(30 1020 180)" stroke-opacity=".2"/></g>
<circle cx="1168" cy="83" r="8" fill="#8befdc"/><circle cx="866" cy="254" r="4" fill="#fff"/>
<g font-family="Arial, Helvetica, sans-serif"><text x="64" y="67" font-size="14" font-weight="700" letter-spacing="3.5" fill="#76d8d1">RESEARCH / SIMULATION / EVIDENCE</text><text x="59" y="166" font-size="84" font-weight="700" letter-spacing="-3" fill="#fff">Q-Orbit</text><text x="64" y="211" font-size="25" fill="#c3d9e5">Finite-key screening for a satellite QKD concept</text>
<rect x="64" y="265" width="173" height="34" rx="17" fill="#1b4355"/><text x="86" y="287" fill="#a3ece2" font-size="13" font-weight="700">THEORETICAL STUDY</text><rect x="249" y="265" width="172" height="34" rx="17" fill="#1b4355"/><text x="274" y="287" fill="#d1e1eb" font-size="13">NUMERICAL MODELS</text><rect x="433" y="265" width="209" height="34" rx="17" fill="#1b4355"/><text x="455" y="287" fill="#d1e1eb" font-size="13">ENGINEERING DOCUMENTS</text></g></svg>